<svg xmlns="http://www.w3.org/2000/svg" width="32" height="32" fill="none"><path fill="#141414" d="M0 0h32v32H0z"/><g fill="#fff"><path fill-rule="evenodd" d="M9.308 9H5v4.154A9.85 9.85 0 0 0 14.846 23h5.266c2.653 0 3.964-2.132 3.964-4.375 0-.945-.233-1.87-.701-2.625.468-.755.701-1.68.701-2.625 0-2.243-1.312-4.375-3.964-4.375h-3.42 0-5.538v1.167h0v7.583h3.692V12.5h4.838c.506.004.916.394.916.875s-.411.873-.919.875h-2.989v3.5h0 0 2.989c.508.002.919.393.919.875s-.413.875-.923.875h-4.831 0a5.54 5.54 0 0 1-5.538-5.538V9z"/><path d="M25.267 10.75A1.75 1.75 0 0 1 27.017 9h.233a1.75 1.75 0 1 1 0 3.5h-.233a1.75 1.75 0 0 1-1.75-1.75z"/></g></svg>
