<svg xmlns:xlink="http://www.w3.org/1999/xlink" xmlns="http://www.w3.org/2000/svg" width="200" height="23" viewBox="0 0 200 23" fill="none">
<g clip-path="url(#clip0_12_167)">
<path fill-rule="evenodd" clip-rule="evenodd" d="M6.57963 0.168217H0V13.3834C0 18.0097 3.75743 21.7602 8.39246 21.7602H19.4601V15.9917H10.7759C8.45836 15.9917 6.57963 14.1165 6.57963 11.8033V0.168217ZM23.5583 0.168223H30.1379V11.8033C30.1379 14.1165 32.0167 15.9917 34.3342 15.9917H40.5669C42.8785 15.9849 44.7506 14.1123 44.7506 11.8033V0.168243H51.3302V13.3834C51.3302 17.9829 47.6164 21.7166 43.0184 21.7598L42.9559 21.7602L42.9378 21.7602H31.8701C27.2722 21.717 23.5583 17.9829 23.5583 13.3834V0.168223ZM62.0073 21.7603H55.4277V8.54512C55.4277 3.94578 59.1412 0.212173 63.739 0.168711L74.8065 0.168317L74.8201 0.168328H74.8876C79.4853 0.211792 83.1989 3.94575 83.1989 8.54509V21.7603H76.6192V10.1252C76.6192 7.81487 74.7452 5.94143 72.4316 5.9368H66.2034C63.8859 5.9368 62.0073 7.81203 62.0073 10.1252V21.7603ZM184.001 22.0352H190.581V8.2454C190.581 3.93639 187.081 0.443258 182.764 0.443258H174.054V6.21174H184.001V22.0352ZM94.1475 0.443151H87.5678V13.6583C87.5678 18.2578 91.2819 21.9915 95.8796 22.0347L106.947 22.0351H106.963H107.028C111.626 21.9919 115.34 18.2579 115.34 13.6583V0.443162H108.76V12.0782C108.76 14.3879 106.887 16.2609 104.575 16.2666H98.3438C96.0263 16.2666 94.1475 14.3914 94.1475 12.0782V0.443151ZM192.432 3.70724C192.432 1.91938 193.885 0.443145 195.676 0.443145C197.467 0.443145 198.919 1.91938 198.919 3.70724C198.919 5.49509 197.467 6.97131 195.676 6.97131C193.885 6.97131 192.432 5.49509 192.432 3.70724ZM169.189 0.696471V6.23038L159.117 6.23035C157.676 6.23035 156.405 6.95521 155.649 8.05953H162.472V13.4997H155.068C155.553 15.2776 157.182 16.5848 159.117 16.5848H169.563V22.1187H156.501C151.87 22.1187 148.115 18.3745 148.108 13.7535L148.108 9.07326C148.108 4.44688 151.866 0.696465 156.501 0.696465L169.189 0.696471Z" fill="white"/>
<path d="M136.907 0C142.233 0 144.866 3.38078 144.866 6.93848C144.866 8.43742 144.399 9.90503 143.46 11.1016C144.399 12.2981 144.867 13.7657 144.867 15.2646C144.867 18.8223 142.233 22.2031 136.907 22.2031H118.92L118.921 16.6523L118.92 5.55078V0H136.907ZM134.702 5.00586C133.53 4.94868 132.382 5.34879 131.5 6.12305C130.619 5.34908 129.47 4.94778 128.298 5.00488C127.126 5.06208 126.023 5.57354 125.221 6.42969C124.419 7.2859 123.981 8.42078 124.001 9.59375C124.021 10.7666 124.495 11.8859 125.325 12.7148L126.218 13.6084L131.499 18.8896L133.884 16.5059L137.674 12.7158C138.504 11.8869 138.979 10.7669 138.999 9.59375C139.019 8.42073 138.581 7.286 137.779 6.42969C136.977 5.57346 135.874 5.06306 134.702 5.00586Z" fill="white"/>
</g>
<defs>
<clipPath id="clip0_12_167">
<rect width="200" height="22.3684" fill="white"/>
</clipPath>
</defs>
</svg>